<svg xmlns="http://www.w3.org/2000/svg" width="300" height="180" viewBox="0 0 300 180">
  <path fill="#F5F5F5" stroke="#BDBDBD" d="M98.5000829,60.2071068 L74.7929761,36.5 L14,36.5 C13.1715729,36.5 12.5,37.1715729 12.5,38 L12.5,145.000073 C12.5,145.828501 13.1715729,146.500073 14,146.500073 L97.0000829,146.500073 C97.82851,146.500073 98.5000829,145.828501 98.5000829,145.000073 L98.5000829,60.2071068 Z"/>
  <path fill="#BDBDBD" d="M75.0000829,36 L99.0000829,60 L76.0000829,60 C75.4477981,60 75.0000829,59.5522847 75.0000829,59 L75.0000829,36 Z"/>
  <rect width="51" height="2" x="30" y="87" fill="#9E9E9E"/>
  <rect width="51" height="4" x="30" y="75" fill="#E60000"/>
  <rect width="51" height="2" x="30" y="97" fill="#9E9E9E"/>
  <rect width="21" height="2" x="60" y="107" fill="#9E9E9E"/>
  <rect width="21" height="2" x="60" y="117" fill="#9E9E9E"/>
  <rect width="21" height="2" x="60" y="127" fill="#9E9E9E"/>
  <path fill="#E60000" d="M5,106 L51,106 C51.5522847,106 52,106.447715 52,107 L52,129 C52,129.552285 51.5522847,130 51,130 L5,130 C4.44771525,130 4,129.552285 4,129 L4,107 C4,106.447715 4.44771525,106 5,106 Z"/>
  <path fill="#FFFFFF" fill-rule="nonzero" d="M12,124 L12,111 L16.1148564,111 C19.011236,111 21.1685393,111.993884 21.1685393,115.015291 C21.1685393,117.897554 19.011236,119.229358 16.1947566,119.229358 L14.3171036,119.229358 L14.3171036,124 L12,124 Z M14.3171036,117.380734 L16.0149813,117.380734 C17.9525593,117.380734 18.8913858,116.605505 18.8913858,115.015291 C18.8913858,113.385321 17.8726592,112.848624 15.9350811,112.848624 L14.3171036,112.848624 L14.3171036,117.380734 Z M23.6254682,124 L23.6254682,111 L27.1210986,111 C31.1161049,111 33.4731586,113.146789 33.4731586,117.440367 C33.4731586,121.753823 31.1161049,124 27.2409488,124 L23.6254682,124 Z M25.9425718,122.131498 L26.9612984,122.131498 C29.5980025,122.131498 31.0961298,120.640673 31.0961298,117.440367 C31.0961298,114.259939 29.5980025,112.868502 26.9612984,112.868502 L25.9425718,112.868502 L25.9425718,122.131498 Z M36.1098627,124 L36.1098627,111 L44,111 L44,112.948012 L38.4269663,112.948012 L38.4269663,116.625382 L43.1810237,116.625382 L43.1810237,118.573394 L38.4269663,118.573394 L38.4269663,124 L36.1098627,124 Z"/>
  <path fill="#3D99F5" d="M176,6 L224.00002,6 L240.00002,22 L240.00002,88 C240.00002,89.1045695 239.10459,90 238.00002,90 L176,90 C174.895431,90 174,89.1045695 174,88 L174,8 C174,6.8954305 174.895431,6 176,6 Z"/>
  <path fill="#FF791A" d="M154,83 L202.00002,83 L218.00002,99 L218.00002,165 C218.00002,166.104569 217.10459,167 216.00002,167 L154,167 C152.895431,167 152,166.104569 152,165 L152,85 C152,83.8954305 152.895431,83 154,83 Z"/>
  <path fill="#FFFFFF" d="M202,83 L218,99 L203,99 C202.447715,99 202,98.5522847 202,98 L202,83 Z" opacity=".3"/>
  <path fill="#3079C2" d="M211.5,28 L244.5,28 C245.328427,28 246,28.6715729 246,29.5 L246,62.5 C246,63.3284271 245.328427,64 244.5,64 L211.5,64 C210.671573,64 210,63.3284271 210,62.5 L210,29.5 C210,28.6715729 210.671573,28 211.5,28 Z"/>
  <path fill="#FFFFFF" fill-rule="nonzero" d="M220.386768,55 L217,37 L221.226463,37 L222.486005,45.4202454 C222.709924,47.297546 222.989822,49.202454 223.21374,51.107362 L223.3257,51.107362 C223.689567,49.202454 224.053435,47.297546 224.417303,45.4202454 L226.37659,37 L229.875318,37 L231.834606,45.4202454 C232.198473,47.2423313 232.562341,49.1748466 232.926209,51.107362 L233.038168,51.107362 C233.290076,49.1748466 233.541985,47.2699387 233.793893,45.4202454 L235.053435,37 L239,37 L235.753181,55 L230.575064,55 L228.783715,46.8282209 C228.475827,45.4478528 228.251908,43.9846626 228.05598,42.6595092 L227.94402,42.6595092 C227.720102,43.9846626 227.496183,45.4478528 227.188295,46.8282209 L225.480916,55 L220.386768,55 Z"/>
  <path fill="#FFFFFF" d="M224,6 L240,22 L225,22 C224.447715,22 224,21.5522847 224,21 L224,6 Z" opacity=".3"/>
  <path fill="#F23030" fill-rule="nonzero" d="M278,45 C278.552285,45 279,44.5522847 279,44 C279,43.4477153 278.552285,43 278,43 C277.447715,43 277,43.4477153 277,44 C277,44.5522847 277.447715,45 278,45 Z M278,46 C276.895431,46 276,45.1045695 276,44 C276,42.8954305 276.895431,42 278,42 C279.104569,42 280,42.8954305 280,44 C280,45.1045695 279.104569,46 278,46 Z"/>
  <path fill="#F23030" fill-rule="nonzero" d="M268.806268,26.1937324 C269.064577,26.4520422 269.064577,26.8708451 268.806268,27.1291549 L267.403134,28.5322887 C267.144824,28.7905985 266.726021,28.7905985 266.467711,28.5322887 C266.209401,28.2739789 266.209401,27.855176 266.467711,27.5968662 L267.870845,26.1937324 C268.129155,25.9354225 268.547958,25.9354225 268.806268,26.1937324 L268.806268,26.1937324 Z M265.532289,29.4677113 C265.790599,29.7260211 265.790599,30.144824 265.532289,30.4031338 L264.129155,31.8062676 C263.870845,32.0645775 263.452042,32.0645775 263.193732,31.8062676 C262.935423,31.5479578 262.935423,31.1291549 263.193732,30.8708451 L264.596866,29.4677113 C264.855176,29.2094015 265.273979,29.2094015 265.532289,29.4677113 Z M268.806268,31.8062676 C268.547958,32.0645775 268.129155,32.0645775 267.870845,31.8062676 L266.467711,30.4031338 C266.209401,30.144824 266.209401,29.7260211 266.467711,29.4677113 C266.726021,29.2094015 267.144824,29.2094015 267.403134,29.4677113 L268.806268,30.8708451 C269.064577,31.1291549 269.064577,31.5479578 268.806268,31.8062676 Z M265.532289,28.5322887 C265.273979,28.7905985 264.855176,28.7905985 264.596866,28.5322887 L263.193732,27.1291549 C262.935423,26.8708451 262.935423,26.4520422 263.193732,26.1937324 C263.452042,25.9354225 263.870845,25.9354225 264.129155,26.1937324 L265.532289,27.5968662 C265.790599,27.855176 265.790599,28.2739789 265.532289,28.5322887 Z"/>
  <rect width="20" height="2" x="186" y="46" fill="#FFFFFF"/>
  <rect width="20" height="2" x="186" y="54" fill="#FFFFFF"/>
  <rect width="20" height="2" x="186" y="62" fill="#FFFFFF"/>
  <rect width="42" height="2" x="186" y="70" fill="#FFFFFF"/>
  <rect width="42" height="2" x="186" y="78" fill="#FFFFFF"/>
  <path fill="#00CC44" d="M230,73 L278.00002,73 L294.00002,89 L294.00002,155 C294.00002,156.104569 293.10459,157 292.00002,157 L230,157 C228.895431,157 228,156.104569 228,155 L228,75 C228,73.8954305 228.895431,73 230,73 Z"/>
  <path fill="#FFFFFF" d="M278,73 L294,89 L279,89 C278.447715,89 278,88.5522847 278,88 L278,73 Z" opacity=".3"/>
  <path fill="#FFFFFF" fill-rule="nonzero" d="M250,125 L240,125 L240,135 L250,135 L250,125 Z M252,125 L252,135 L282,135 L282,125 L252,125 Z M250,145 L250,137 L240,137 L240,145 L250,145 Z M252,145 L282,145 L282,137 L252,137 L252,145 Z M250,113 L240,113 L240,123 L250,123 L250,113 Z M252,113 L252,123 L282,123 L282,113 L252,113 Z M250,103 L240,103 L240,111 L250,111 L250,103 Z M252,103 L252,111 L282,111 L282,103 L252,103 Z M238,101 L284,101 L284,147 L238,147 L238,101 Z"/>
  <path fill="#009933" d="M265.5,95 L298.5,95 C299.328427,95 300,95.6715729 300,96.5 L300,129.5 C300,130.328427 299.328427,131 298.5,131 L265.5,131 C264.671573,131 264,130.328427 264,129.5 L264,96.5 C264,95.6715729 264.671573,95 265.5,95 Z"/>
  <path fill="#FFFFFF" fill-rule="nonzero" d="M273,122 L278.977982,112.751534 L273.363303,104 L278.779817,104 L280.662385,107.395706 C281.157798,108.223926 281.620183,109.162577 282.214679,110.294479 L282.346789,110.294479 C282.842202,109.162577 283.304587,108.223926 283.733945,107.395706 L285.451376,104 L290.636697,104 L285.055046,112.944785 L291,122 L285.583486,122 L283.436697,118.328221 C282.908257,117.389571 282.412844,116.478528 281.818349,115.374233 L281.686239,115.374233 C281.190826,116.478528 280.695413,117.389571 280.233028,118.328221 L278.218349,122 L273,122 Z"/>
  <path fill="#CC6115" d="M189.5,105 L222.5,105 C223.328427,105 224,105.671573 224,106.5 L224,139.5 C224,140.328427 223.328427,141 222.5,141 L189.5,141 C188.671573,141 188,140.328427 188,139.5 L188,106.5 C188,105.671573 188.671573,105 189.5,105 Z"/>
  <path fill="#FFFFFF" fill-rule="nonzero" d="M199,132 L199,114 L205.492754,114 C209.637681,114 213,115.435583 213,119.797546 C213,124.021472 209.608696,125.898773 205.608696,125.898773 L203.26087,125.898773 L203.26087,132 L199,132 Z M203.26087,122.668712 L205.347826,122.668712 C207.695652,122.668712 208.826087,121.674847 208.826087,119.797546 C208.826087,117.920245 207.550725,117.230061 205.231884,117.230061 L203.26087,117.230061 L203.26087,122.668712 Z"/>
  <rect width="20" height="4" x="164" y="113" fill="#FFFFFF"/>
  <rect width="5" height="2" x="179" y="123" fill="#FFFFFF"/>
  <rect width="5" height="2" x="179" y="131" fill="#FFFFFF"/>
  <path fill="#FFFFFF" fill-rule="nonzero" d="M166,139 C169.865993,139 173,135.865993 173,132 C173,128.134007 169.865993,125 166,125 C162.134007,125 159,128.134007 159,132 C159,135.865993 162.134007,139 166,139 Z M166,141 C161.029437,141 157,136.970563 157,132 C157,127.029437 161.029437,123 166,123 C170.970563,123 175,127.029437 175,132 C175,136.970563 170.970563,141 166,141 Z"/>
  <path fill="#FFFFFF" d="M166,123 L166,123 C170.970563,123 175,127.029437 175,132 L175,132 L166,132 L166,123 Z"/>
  <rect width="5" height="2" x="179" y="139" fill="#FFFFFF"/>
  <rect width="42" height="2" x="164" y="147" fill="#FFFFFF"/>
  <rect width="42" height="2" x="164" y="155" fill="#FFFFFF"/>
  <path fill="#E60000" fill-rule="nonzero" d="M3,32 C3.55228475,32 4,31.5522847 4,31 C4,30.4477153 3.55228475,30 3,30 C2.44771525,30 2,30.4477153 2,31 C2,31.5522847 2.44771525,32 3,32 Z M3,33 C1.8954305,33 1,32.1045695 1,31 C1,29.8954305 1.8954305,29 3,29 C4.1045695,29 5,29.8954305 5,31 C5,32.1045695 4.1045695,33 3,33 Z"/>
  <path fill="#E60000" fill-rule="nonzero" d="M17.8062676 16.1937324C18.0645775 16.4520422 18.0645775 16.8708451 17.8062676 17.1291549L16.4031338 18.5322887C16.144824 18.7905985 15.7260211 18.7905985 15.4677113 18.5322887 15.2094015 18.2739789 15.2094015 17.855176 15.4677113 17.5968662L16.8708451 16.1937324C17.1291549 15.9354225 17.5479578 15.9354225 17.8062676 16.1937324L17.8062676 16.1937324zM14.5322887 19.4677113C14.7905985 19.7260211 14.7905985 20.144824 14.5322887 20.4031338L13.1291549 21.8062676C12.8708451 22.0645775 12.4520422 22.0645775 12.1937324 21.8062676 11.9354225 21.5479578 11.9354225 21.1291549 12.1937324 20.8708451L13.5968662 19.4677113C13.855176 19.2094015 14.2739789 19.2094015 14.5322887 19.4677113zM17.8062676 21.8062676C17.5479578 22.0645775 17.1291549 22.0645775 16.8708451 21.8062676L15.4677113 20.4031338C15.2094015 20.144824 15.2094015 19.7260211 15.4677113 19.4677113 15.7260211 19.2094015 16.144824 19.2094015 16.4031338 19.4677113L17.8062676 20.8708451C18.0645775 21.1291549 18.0645775 21.5479578 17.8062676 21.8062676zM14.5322887 18.5322887C14.2739789 18.7905985 13.855176 18.7905985 13.5968662 18.5322887L12.1937324 17.1291549C11.9354225 16.8708451 11.9354225 16.4520422 12.1937324 16.1937324 12.4520422 15.9354225 12.8708451 15.9354225 13.1291549 16.1937324L14.5322887 17.5968662C14.7905985 17.855176 14.7905985 18.2739789 14.5322887 18.5322887zM114.806268 151.193732C115.064577 151.452042 115.064577 151.870845 114.806268 152.129155L113.403134 153.532289C113.144824 153.790599 112.726021 153.790599 112.467711 153.532289 112.209401 153.273979 112.209401 152.855176 112.467711 152.596866L113.870845 151.193732C114.129155 150.935423 114.547958 150.935423 114.806268 151.193732L114.806268 151.193732zM111.532289 154.467711C111.790599 154.726021 111.790599 155.144824 111.532289 155.403134L110.129155 156.806268C109.870845 157.064577 109.452042 157.064577 109.193732 156.806268 108.935423 156.547958 108.935423 156.129155 109.193732 155.870845L110.596866 154.467711C110.855176 154.209401 111.273979 154.209401 111.532289 154.467711zM114.806268 156.806268C114.547958 157.064577 114.129155 157.064577 113.870845 156.806268L112.467711 155.403134C112.209401 155.144824 112.209401 154.726021 112.467711 154.467711 112.726021 154.209401 113.144824 154.209401 113.403134 154.467711L114.806268 155.870845C115.064577 156.129155 115.064577 156.547958 114.806268 156.806268zM111.532289 153.532289C111.273979 153.790599 110.855176 153.790599 110.596866 153.532289L109.193732 152.129155C108.935423 151.870845 108.935423 151.452042 109.193732 151.193732 109.452042 150.935423 109.870845 150.935423 110.129155 151.193732L111.532289 152.596866C111.790599 152.855176 111.790599 153.273979 111.532289 153.532289z"/>
  <path fill="#F23030" fill-rule="nonzero" d="M100,166 C100.552285,166 101,165.552285 101,165 C101,164.447715 100.552285,164 100,164 C99.4477153,164 99,164.447715 99,165 C99,165.552285 99.4477153,166 100,166 Z M100,167 C98.8954305,167 98,166.104569 98,165 C98,163.895431 98.8954305,163 100,163 C101.104569,163 102,163.895431 102,165 C102,166.104569 101.104569,167 100,167 Z"/>
  <polygon fill="#9E9E9E" fill-rule="nonzero" points="136.507 89.167 127.75 81.2 129.046 80 140 90 129.046 100 127.75 98.8 136.507 90.833 112 90.833 112 89.167"/>
  <path fill="#F23030" fill-rule="nonzero" d="M150,45 C150.552285,45 151,44.5522847 151,44 C151,43.4477153 150.552285,43 150,43 C149.447715,43 149,43.4477153 149,44 C149,44.5522847 149.447715,45 150,45 Z M150,46 C148.895431,46 148,45.1045695 148,44 C148,42.8954305 148.895431,42 150,42 C151.104569,42 152,42.8954305 152,44 C152,45.1045695 151.104569,46 150,46 Z"/>
</svg>
